<?xml version="1.0" encoding="UTF-8" standalone="no"?>
<!-- Created with Inkscape (http://www.inkscape.org/) -->

<svg
   width="210mm"
   height="297mm"
   viewBox="0 0 210 297"
   version="1.1"
   id="svg5"
   inkscape:version="1.2.2 (b0a8486541, 2022-12-01)"
   sodipodi:docname="jellyfish2.svg"
   xmlns:inkscape="http://www.inkscape.org/namespaces/inkscape"
   xmlns:sodipodi="http://sodipodi.sourceforge.net/DTD/sodipodi-0.dtd"
   xmlns="http://www.w3.org/2000/svg"
   xmlns:svg="http://www.w3.org/2000/svg">
  <sodipodi:namedview
     id="namedview7"
     pagecolor="#ffffff"
     bordercolor="#666666"
     borderopacity="1.0"
     inkscape:pageshadow="2"
     inkscape:pageopacity="0.0"
     inkscape:pagecheckerboard="0"
     inkscape:document-units="mm"
     showgrid="true"
     inkscape:snap-global="true"
     inkscape:snap-bbox="true"
     inkscape:zoom="5.369971"
     inkscape:cx="33.054182"
     inkscape:cy="-2.0484282"
     inkscape:window-width="1362"
     inkscape:window-height="718"
     inkscape:window-x="0"
     inkscape:window-y="0"
     inkscape:window-maximized="1"
     inkscape:current-layer="layer1"
     inkscape:showpageshadow="2"
     inkscape:deskcolor="#d1d1d1">
    <inkscape:grid
       type="xygrid"
       id="grid36140" />
  </sodipodi:namedview>
  <defs
     id="defs2" />
  <g
     inkscape:label="Layer 1"
     inkscape:groupmode="layer"
     id="layer1">
    <g
       id="g54141"
       transform="matrix(1.000007,0,0,0.99998021,-0.35147513,1.6707931)">
      <path
         id="rect1477-30"
         style="fill:#00ffff;fill-opacity:1;stroke:none;stroke-width:0.272381"
         d="m -3.0691864,0.46413764 a 0.8537269,0.8537269 0 0 0 -0.416513,0.72191996 h -0.00672 v 0.011369 a 0.8537269,0.8537269 0 0 0 -0.00362,0.0062 h 0.00362 v 5.991882 h -0.00362 a 0.8537269,0.8537269 0 0 0 0.426847,0.739489 0.8537269,0.8537269 0 0 0 0.853694,0 0.8537269,0.8537269 0 0 0 0.426847,-0.739489 h -0.00413 v -5.991882 h 0.00413 a 0.8537269,0.8537269 0 0 0 -0.00413,-0.00723 v -0.010335 h -0.0062 a 0.8537269,0.8537269 0 0 0 -0.416512,-0.72191996 0.8537269,0.8537269 0 0 0 -0.853694,0 z" />
      <path
         id="rect1477-3-9"
         style="fill:#00ffff;fill-opacity:1;stroke:none;stroke-width:0.272381"
         d="m -0.19705639,0.46413864 a 0.8537269,0.8537269 0 0 0 -0.416513,0.72191896 h -0.006717 v 0.011369 a 0.8537269,0.8537269 0 0 0 -0.003617,0.0062 h 0.003617 v 5.991882 h -0.003617 a 0.8537269,0.8537269 0 0 0 0.426847,0.739489 0.8537269,0.8537269 0 0 0 0.853694,0 0.8537269,0.8537269 0 0 0 0.42684699,-0.739489 h -0.00413 v -5.991882 h 0.00413 a 0.8537269,0.8537269 0 0 0 -0.00413,-0.00723 v -0.010336 h -0.0062 a 0.8537269,0.8537269 0 0 0 -0.41651199,-0.72191896 0.8537269,0.8537269 0 0 0 -0.853694,0 z" />
      <path
         id="rect1477-09-2"
         style="fill:#00ffff;fill-opacity:1;stroke:none;stroke-width:0.272381"
         d="M 2.6750716,0.46413864 A 0.8537269,0.8537269 0 0 0 2.2585586,1.1860586 h -0.00672 v 0.011368 a 0.8537269,0.8537269 0 0 0 -0.00362,0.0062 h 0.00362 v 5.991881 h -0.00362 a 0.8537269,0.8537269 0 0 0 0.426847,0.739489 0.8537269,0.8537269 0 0 0 0.853694,0 0.8537269,0.8537269 0 0 0 0.426847,-0.739489 h -0.00413 v -5.991881 h 0.00413 a 0.8537269,0.8537269 0 0 0 -0.00413,-0.00724 v -0.010335 h -0.0062 a 0.8537269,0.8537269 0 0 0 -0.416512,-0.72191996 0.8537269,0.8537269 0 0 0 -0.853694,0 z" />
    </g>
    <path
       id="rect1477-30-5"
       style="fill:#00ffff;fill-opacity:1;stroke:none;stroke-width:0.272379"
       d="m 5.2487173,1.079061 a 0.85373286,0.85370999 0 0 0 -0.08475,0.00258 0.85373286,0.85370999 0 0 0 -0.3632879,0.1121357 0.85373286,0.85370999 0 0 0 -0.416515,0.7219054 h -0.00672 v 0.011369 a 0.85373286,0.85370999 0 0 0 -0.00362,0.0062 h 0.00362 v 2.6457814 h -0.00413 a 0.85373286,0.85370999 0 0 0 0.00413,0.00723 v 0.010335 h 0.0062 a 0.85373286,0.85370999 0 0 0 0.072347,0.3327898 0.85373286,0.85370999 0 0 0 0.091468,0.2191038 l -0.00568,0.00362 0.00568,0.0093 a 0.85373286,0.85370999 0 0 0 0,0.00723 l 0.0031,-0.00155 1.3839046,2.2551149 -0.00362,0.00207 a 0.85373286,0.85370999 0 0 0 0.00723,0.00413 l 0.00517,0.00879 0.00568,-0.0031 A 0.85373286,0.85370999 0 0 0 6.6811978,7.8314868 0.85373286,0.85370999 0 0 0 7.1581748,7.6707763 0.85373286,0.85370999 0 0 0 7.4088071,7.3850111 0.85373286,0.85370999 0 0 0 7.3865862,6.5520034 l 0.00568,-0.00362 -0.0062,-0.00982 a 0.85373286,0.85370999 0 0 0 0,-5.167e-4 0.85373286,0.85370999 0 0 0 0,-5.167e-4 0.85373286,0.85370999 0 0 0 0,-5.17e-4 0.85373286,0.85370999 0 0 0 0,-5.168e-4 0.85373286,0.85370999 0 0 0 0,-5.166e-4 0.85373286,0.85370999 0 0 0 0,-5.167e-4 0.85373286,0.85370999 0 0 0 0,-5.168e-4 0.85373286,0.85370999 0 0 0 0,-5.167e-4 0.85373286,0.85370999 0 0 0 0,-5.167e-4 0.85373286,0.85370999 0 0 0 0,-5.168e-4 0.85373286,0.85370999 0 0 0 0,-5.167e-4 0.85373286,0.85370999 0 0 0 0,-5.17e-4 0.85373286,0.85370999 0 0 0 0,-5.167e-4 0.85373286,0.85370999 0 0 0 0,-5.167e-4 l -0.0031,0.00207 -1.3058699,-2.1285084 v -2.471635 h 0.00413 a 0.85373286,0.85370999 0 0 0 -0.00413,-0.00723 v -0.010335 h -0.0062 A 0.85373286,0.85370999 0 0 0 5.65438,1.1937804 0.85373286,0.85370999 0 0 0 5.2487173,1.079061 Z" />
    <path
       id="rect1477-30-5-7"
       style="fill:#00ffff;fill-opacity:1;stroke:none;stroke-width:0.272379"
       d="m -5.4920856,0.97885933 a 0.85373286,0.85370999 0 0 1 0.08475,0.002584 0.85373286,0.85370999 0 0 1 0.3632879,0.11213567 0.85373286,0.85370999 0 0 1 0.416515,0.7219054 h 0.00672 v 0.011369 a 0.85373286,0.85370999 0 0 1 0.00362,0.0062 h -0.00362 v 2.6457809 h 0.00413 a 0.85373286,0.85370999 0 0 1 -0.00413,0.00723 v 0.010335 h -0.0062 a 0.85373286,0.85370999 0 0 1 -0.072347,0.3327898 0.85373286,0.85370999 0 0 1 -0.091468,0.2191038 l 0.00568,0.00362 -0.00568,0.0093 a 0.85373286,0.85370999 0 0 1 0,0.00723 l -0.0031,-0.00155 -1.3839046,2.2551149 0.00362,0.00207 a 0.85373286,0.85370999 0 0 1 -0.00723,0.00413 l -0.00517,0.00878 -0.00568,-0.0031 A 0.85373286,0.85370999 0 0 1 -6.9245661,7.7312852 0.85373286,0.85370999 0 0 1 -7.401543,7.5705746 0.85373286,0.85370999 0 0 1 -7.6521754,7.2848096 0.85373286,0.85370999 0 0 1 -7.6299547,6.4518019 l -0.00568,-0.00362 0.0062,-0.00982 a 0.85373286,0.85370999 0 0 1 0,-5.167e-4 0.85373286,0.85370999 0 0 1 0,-5.167e-4 0.85373286,0.85370999 0 0 1 0,-5.17e-4 0.85373286,0.85370999 0 0 1 0,-5.168e-4 0.85373286,0.85370999 0 0 1 0,-5.167e-4 0.85373286,0.85370999 0 0 1 0,-5.167e-4 0.85373286,0.85370999 0 0 1 0,-5.168e-4 0.85373286,0.85370999 0 0 1 0,-5.166e-4 0.85373286,0.85370999 0 0 1 0,-5.167e-4 0.85373286,0.85370999 0 0 1 0,-5.168e-4 0.85373286,0.85370999 0 0 1 0,-5.167e-4 0.85373286,0.85370999 0 0 1 0,-5.17e-4 0.85373286,0.85370999 0 0 1 0,-5.167e-4 0.85373286,0.85370999 0 0 1 0,-5.168e-4 l 0.0031,0.00207 1.3058725,-2.1285101 V 1.8330536 h -0.00413 a 0.85373286,0.85370999 0 0 1 0.00413,-0.00723 v -0.010335 h 0.0062 a 0.85373286,0.85370999 0 0 1 0.416515,-0.7219053 0.85373286,0.85370999 0 0 1 0.4056627,-0.11471947 z" />
    <path
       id="path19952-1-7"
       style="fill:#00ffff;fill-opacity:1;stroke:none;stroke-width:0.709436;stroke-linejoin:bevel;stroke-miterlimit:4;stroke-dasharray:none;stroke-opacity:1"
       d="M -0.11988932 -9.7198201 C -4.4120845 -9.7198451 -7.891508 -6.2674209 -7.891508 -2.0091797 C -7.889038 -1.6754793 -7.8646462 -1.342916 -7.8186442 -1.0123413 C -7.8186442 -1.0123413 -4.4847738 0.8123738 -0.0020670573 0.85472819 C -0.00049701142 0.85474255 0.00049701242 0.85471382 0.0020670573 0.85472819 C 4.4847805 0.8123774 7.8186442 -1.0123413 7.8186442 -1.0123413 C 7.8646452 -1.3429159 7.889029 -1.6754792 7.891508 -2.0091797 C 7.891508 -6.2674213 4.4120842 -9.7198451 0.11988932 -9.7198201 C 0.080539234 -9.7198181 0.041262939 -9.7193466 0.0020670573 -9.7187866 C 0.00049701242 -9.7188086 -0.0006070142 -9.7187646 -0.0020670573 -9.7187866 C -0.041271139 -9.7193516 -0.080536534 -9.7198201 -0.11988932 -9.7198201 z M 1.6753499 -8.0811605 A 1.3029242 1.3029242 0 0 1 2.9781128 -6.7783976 A 1.3029242 1.3029242 0 0 1 1.6753499 -5.4756348 A 1.3029242 1.3029242 0 0 1 0.37207031 -6.7783976 A 1.3029242 1.3029242 0 0 1 1.6753499 -8.0811605 z M 3.8684977 -5.4880371 A 2.1830609 0.98673236 56.007932 0 1 5.6534017 -4.148584 A 2.1830609 0.98673236 56.007932 0 1 6.0559611 -1.786971 A 2.1830609 0.98673236 56.007932 0 1 4.0173258 -3.0452922 A 2.1830609 0.98673236 56.007932 0 1 3.6147664 -5.4069051 A 2.1830609 0.98673236 56.007932 0 1 3.8684977 -5.4880371 z " />
  </g>
</svg>
