<?xml version="1.0" encoding="UTF-8" standalone="no"?>
<!-- Created with Inkscape (http://www.inkscape.org/) -->

<svg
   width="210mm"
   height="297mm"
   viewBox="0 0 210 297"
   version="1.1"
   id="svg5"
   inkscape:version="1.2.2 (b0a8486541, 2022-12-01)"
   sodipodi:docname="jellyfish2.svg"
   xmlns:inkscape="http://www.inkscape.org/namespaces/inkscape"
   xmlns:sodipodi="http://sodipodi.sourceforge.net/DTD/sodipodi-0.dtd"
   xmlns="http://www.w3.org/2000/svg"
   xmlns:svg="http://www.w3.org/2000/svg">
  <sodipodi:namedview
     id="namedview7"
     pagecolor="#ffffff"
     bordercolor="#666666"
     borderopacity="1.0"
     inkscape:pageshadow="2"
     inkscape:pageopacity="0.0"
     inkscape:pagecheckerboard="0"
     inkscape:document-units="mm"
     showgrid="true"
     inkscape:snap-global="true"
     inkscape:snap-bbox="true"
     inkscape:zoom="5.369971"
     inkscape:cx="33.054182"
     inkscape:cy="-7.2626091"
     inkscape:window-width="1362"
     inkscape:window-height="718"
     inkscape:window-x="0"
     inkscape:window-y="0"
     inkscape:window-maximized="1"
     inkscape:current-layer="layer1"
     inkscape:showpageshadow="2"
     inkscape:deskcolor="#d1d1d1">
    <inkscape:grid
       type="xygrid"
       id="grid36140" />
  </sodipodi:namedview>
  <defs
     id="defs2" />
  <g
     inkscape:label="Layer 1"
     inkscape:groupmode="layer"
     id="layer1">
    <g
       id="g948"
       transform="matrix(1.0000297,0,0,1.0000018,-0.06264636,0.48585583)">
      <g
         id="g54141"
         transform="matrix(0.9999773,0,0,0.99997841,-0.28882019,1.1849351)">
        <path
           id="rect1477-30"
           style="fill:#00ffff;fill-opacity:1;stroke:none;stroke-width:0.272381"
           d="m -3.0691864,0.46413764 a 0.8537269,0.8537269 0 0 0 -0.416513,0.72191996 h -0.00672 v 0.011369 a 0.8537269,0.8537269 0 0 0 -0.00362,0.0062 h 0.00362 v 5.991882 h -0.00362 a 0.8537269,0.8537269 0 0 0 0.426847,0.739489 0.8537269,0.8537269 0 0 0 0.853694,0 0.8537269,0.8537269 0 0 0 0.426847,-0.739489 h -0.00413 v -5.991882 h 0.00413 a 0.8537269,0.8537269 0 0 0 -0.00413,-0.00723 v -0.010335 h -0.0062 a 0.8537269,0.8537269 0 0 0 -0.416512,-0.72191996 0.8537269,0.8537269 0 0 0 -0.853694,0 z" />
        <path
           id="rect1477-3-9"
           style="fill:#00ffff;fill-opacity:1;stroke:none;stroke-width:0.272381"
           d="m -0.19705639,0.46413864 a 0.8537269,0.8537269 0 0 0 -0.416513,0.72191896 h -0.006717 v 0.011369 a 0.8537269,0.8537269 0 0 0 -0.003617,0.0062 h 0.003617 v 5.991882 h -0.003617 a 0.8537269,0.8537269 0 0 0 0.426847,0.739489 0.8537269,0.8537269 0 0 0 0.853694,0 0.8537269,0.8537269 0 0 0 0.42684699,-0.739489 h -0.00413 v -5.991882 h 0.00413 a 0.8537269,0.8537269 0 0 0 -0.00413,-0.00723 v -0.010336 h -0.0062 a 0.8537269,0.8537269 0 0 0 -0.41651199,-0.72191896 0.8537269,0.8537269 0 0 0 -0.853694,0 z" />
        <path
           id="rect1477-09-2"
           style="fill:#00ffff;fill-opacity:1;stroke:none;stroke-width:0.272381"
           d="M 2.6750716,0.46413864 A 0.8537269,0.8537269 0 0 0 2.2585586,1.1860586 h -0.00672 v 0.011368 a 0.8537269,0.8537269 0 0 0 -0.00362,0.0062 h 0.00362 v 5.991881 h -0.00362 a 0.8537269,0.8537269 0 0 0 0.426847,0.739489 0.8537269,0.8537269 0 0 0 0.853694,0 0.8537269,0.8537269 0 0 0 0.426847,-0.739489 h -0.00413 v -5.991881 h 0.00413 a 0.8537269,0.8537269 0 0 0 -0.00413,-0.00724 v -0.010335 h -0.0062 a 0.8537269,0.8537269 0 0 0 -0.416512,-0.72191996 0.8537269,0.8537269 0 0 0 -0.853694,0 z" />
      </g>
      <path
         id="rect1477-30-5"
         style="fill:#00ffff;fill-opacity:1;stroke:none;stroke-width:0.272375"
         d="M 5.3112059,0.59320406 A 0.8537075,0.85370845 0 0 0 5.2264586,0.59578782 0.8537075,0.85370845 0 0 0 4.8631815,0.70792326 0.8537075,0.85370845 0 0 0 4.4466789,1.4298274 h -0.00672 v 0.011369 a 0.8537075,0.85370845 0 0 0 -0.00362,0.0062 h 0.00362 V 4.093173 h -0.00413 a 0.8537075,0.85370845 0 0 0 0.00413,0.00723 v 0.010335 h 0.0062 a 0.8537075,0.85370845 0 0 0 0.072345,0.3327892 0.8537075,0.85370845 0 0 0 0.091465,0.2191034 l -0.00568,0.00362 0.00568,0.0093 a 0.8537075,0.85370845 0 0 0 0,0.00723 l 0.0031,-0.00155 1.3838635,2.2551109 -0.00362,0.00207 a 0.8537075,0.85370845 0 0 0 0.00723,0.00413 l 0.00517,0.00879 0.00568,-0.0031 A 0.8537075,0.85370845 0 0 0 6.7436439,7.3456177 0.8537075,0.85370845 0 0 0 7.2206067,7.1849075 0.8537075,0.85370845 0 0 0 7.4712316,6.8991429 0.8537075,0.85370845 0 0 0 7.4490113,6.0661367 l 0.00568,-0.00362 -0.0062,-0.00982 a 0.8537075,0.85370845 0 0 0 0,-5.167e-4 0.8537075,0.85370845 0 0 0 0,-5.167e-4 0.8537075,0.85370845 0 0 0 0,-5.17e-4 0.8537075,0.85370845 0 0 0 0,-5.168e-4 0.8537075,0.85370845 0 0 0 0,-5.166e-4 0.8537075,0.85370845 0 0 0 0,-5.167e-4 0.8537075,0.85370845 0 0 0 0,-5.168e-4 0.8537075,0.85370845 0 0 0 0,-5.167e-4 0.8537075,0.85370845 0 0 0 0,-5.167e-4 0.8537075,0.85370845 0 0 0 0,-5.168e-4 0.8537075,0.85370845 0 0 0 0,-5.167e-4 0.8537075,0.85370845 0 0 0 0,-5.17e-4 0.8537075,0.85370845 0 0 0 0,-5.167e-4 0.8537075,0.85370845 0 0 0 0,-5.167e-4 l -0.0031,0.00207 L 6.1395602,3.9190275 V 1.447397 h 0.00413 a 0.8537075,0.85370845 0 0 0 -0.00413,-0.00723 V 1.429832 h -0.0062 A 0.8537075,0.85370845 0 0 0 5.7168566,0.70792326 0.8537075,0.85370845 0 0 0 5.3112059,0.59320406 Z" />
      <path
         id="rect1477-30-5-7"
         style="fill:#00ffff;fill-opacity:1;stroke:none;stroke-width:0.272375"
         d="m -5.429278,0.49300261 a 0.8537075,0.85370845 0 0 1 0.084747,0.002584 0.8537075,0.85370845 0 0 1 0.3632771,0.11213548 0.8537075,0.85370845 0 0 1 0.4165026,0.72190411 h 0.00672 v 0.011369 a 0.8537075,0.85370845 0 0 1 0.00362,0.0062 h -0.00362 v 2.6457762 h 0.00413 a 0.8537075,0.85370845 0 0 1 -0.00413,0.00723 v 0.010335 h -0.0062 a 0.8537075,0.85370845 0 0 1 -0.072345,0.3327892 0.8537075,0.85370845 0 0 1 -0.091465,0.2191034 l 0.00568,0.00362 -0.00568,0.0093 a 0.8537075,0.85370845 0 0 1 0,0.00723 l -0.0031,-0.00155 -1.3838635,2.2551109 0.00362,0.00207 a 0.8537075,0.85370845 0 0 1 -0.00723,0.00413 l -0.00517,0.00878 -0.00568,-0.0031 A 0.8537075,0.85370845 0 0 1 -6.8617159,7.2454163 0.8537075,0.85370845 0 0 1 -7.3386787,7.084706 0.8537075,0.85370845 0 0 1 -7.5893036,6.7989415 a 0.8537075,0.85370845 0 0 1 0.02222,-0.8330062 l -0.00568,-0.00362 0.0062,-0.00982 a 0.8537075,0.85370845 0 0 1 0,-5.167e-4 0.8537075,0.85370845 0 0 1 0,-5.167e-4 0.8537075,0.85370845 0 0 1 0,-5.17e-4 0.8537075,0.85370845 0 0 1 0,-5.168e-4 0.8537075,0.85370845 0 0 1 0,-5.167e-4 0.8537075,0.85370845 0 0 1 0,-5.167e-4 0.8537075,0.85370845 0 0 1 0,-5.168e-4 0.8537075,0.85370845 0 0 1 0,-5.166e-4 0.8537075,0.85370845 0 0 1 0,-5.167e-4 0.8537075,0.85370845 0 0 1 0,-5.168e-4 0.8537075,0.85370845 0 0 1 0,-5.167e-4 0.8537075,0.85370845 0 0 1 0,-5.17e-4 0.8537075,0.85370845 0 0 1 0,-5.167e-4 0.8537075,0.85370845 0 0 1 0,-5.168e-4 l 0.0031,0.00207 1.3058337,-2.1285063 v -2.471629 h -0.00413 a 0.8537075,0.85370845 0 0 1 0.00413,-0.00723 v -0.010335 h 0.0062 a 0.8537075,0.85370845 0 0 1 0.4165027,-0.72190407 0.8537075,0.85370845 0 0 1 0.4056506,-0.11471922 z" />
      <path
         id="path19952-1-7"
         style="fill:#00ffff;fill-opacity:1;stroke:none;stroke-width:0.709425;stroke-linejoin:bevel;stroke-miterlimit:4;stroke-dasharray:none;stroke-opacity:1"
         d="m -0.0573212,-10.205837 c -4.2920763,-2.5e-5 -7.7713001,3.4524022 -7.7713001,7.7106444 0.00247,0.3337004 0.027032,0.6666621 0.073033,0.9972368 0,0 3.3333503,1.82468051 7.8159329,1.86703491 0.00157,1.436e-5 0.00303,-1.437e-5 0.0046,0 4.4825891,-0.0423508 7.8159327,-1.86703491 7.8159327,-1.86703491 0.046,-0.3305746 0.070554,-0.6635363 0.073033,-0.9972368 0,-4.2582426 -3.4792249,-7.7106694 -7.7713009,-7.7106444 -0.039349,2e-6 -0.078473,6.4e-4 -0.1176678,0.0012 -0.00157,-2.2e-5 -0.00314,2.2e-5 -0.0046,0 -0.039203,-5.65e-4 -0.078316,-0.0012 -0.1176677,-0.0012 z" />
    </g>
  </g>
</svg>
