<?xml version="1.0" encoding="UTF-8" standalone="no"?>
<!-- Created with Inkscape (http://www.inkscape.org/) -->

<svg
   width="210mm"
   height="297mm"
   viewBox="0 0 210 297"
   version="1.1"
   id="svg5"
   inkscape:version="1.1.2 (0a00cf5339, 2022-02-04)"
   sodipodi:docname="jellyfish.svg"
   xmlns:inkscape="http://www.inkscape.org/namespaces/inkscape"
   xmlns:sodipodi="http://sodipodi.sourceforge.net/DTD/sodipodi-0.dtd"
   xmlns="http://www.w3.org/2000/svg"
   xmlns:svg="http://www.w3.org/2000/svg">
  <sodipodi:namedview
     id="namedview7"
     pagecolor="#ffffff"
     bordercolor="#666666"
     borderopacity="1.0"
     inkscape:pageshadow="2"
     inkscape:pageopacity="0.0"
     inkscape:pagecheckerboard="0"
     inkscape:document-units="mm"
     showgrid="false"
     inkscape:snap-global="true"
     inkscape:snap-bbox="true"
     inkscape:zoom="4.6965769"
     inkscape:cx="50.994587"
     inkscape:cy="56.743455"
     inkscape:window-width="956"
     inkscape:window-height="1147"
     inkscape:window-x="0"
     inkscape:window-y="16"
     inkscape:window-maximized="1"
     inkscape:current-layer="layer1" />
  <defs
     id="defs2" />
  <g
     inkscape:label="Layer 1"
     inkscape:groupmode="layer"
     id="layer1">
    <path
       id="path1078"
       style="fill:#00ffff;stroke:none;stroke-width:0.374475"
       d="M 2.25e-4,-7.5084997 A 7.4513825,5.1275339 0 0 0 -7.451,-2.381164 7.4513825,5.1275339 0 0 0 -4.762794,1.55968 4.7699871,3.221673 0 0 1 -4.769512,1.452193 4.7699871,3.221673 0 0 1 2.25e-4,-1.769315 4.7699871,3.221673 0 0 1 4.770474,1.452193 4.7699871,3.221673 0 0 1 4.763241,1.55968 7.4513825,5.1275339 0 0 0 7.45145,-2.381164 7.4513825,5.1275339 0 0 0 2.25e-4,-7.5084997 Z" />
    <path
       style="fill:#00ffff;stroke-width:0.212921"
       d="M -19.588735,4.760597 C -21.527095,3.4692821 -24.322461,0.72898625 -25.484591,-1.0191061 -31.010226,-9.3308486 -27.24818,-19.175914 -16.499689,-24.532094 -11.501057,-27.023009 -6.1234534,-28.216388 0.06413607,-28.20788 20.42639,-28.179883 33.935482,-13.731061 25.484591,-1.0191061 24.322461,0.72898625 21.527096,3.4692821 19.588735,4.760597 L 18.204748,5.6825962 18.072258,4.630283 C 17.506061,0.13319701 13.777164,-3.6165851 7.9774229,-5.5210935 1.0051555,-7.8106352 -7.8142232,-6.7586799 -13.061925,-3.0115679 -16.074632,-0.86035001 -17.691447,1.605646 -18.072259,4.630283 L -18.204748,5.6825962 Z"
       id="path1115"
       transform="scale(0.26458333)" />
    <g
       id="g1397">
      <g
         id="g1390">
        <path
           id="rect1477"
           style="fill:#00ffff;fill-opacity:1;stroke:none;stroke-width:0.272381"
           d="M -3.320218,-0.077219 A 0.8537269,0.8537269 0 0 0 -3.736731,0.644701 H -3.743448 V 0.65607 A 0.8537269,0.8537269 0 0 0 -3.747065,0.662271 H -3.743448 V 6.654153 H -3.747065 A 0.8537269,0.8537269 0 0 0 -3.320218,7.393642 0.8537269,0.8537269 0 0 0 -2.466524,7.393642 0.8537269,0.8537269 0 0 0 -2.039677,6.654153 H -2.04381 V 0.662271 H -2.039677 A 0.8537269,0.8537269 0 0 0 -2.04381,0.655036 V 0.644701 H -2.050012 A 0.8537269,0.8537269 0 0 0 -2.466524,-0.077219 0.8537269,0.8537269 0 0 0 -3.320218,-0.077219 Z" />
        <path
           id="rect1477-3"
           style="fill:#00ffff;fill-opacity:1;stroke:none;stroke-width:0.272381"
           d="M -0.448088,-0.077218 A 0.8537269,0.8537269 0 0 0 -0.864601,0.644701 H -0.871318 V 0.65607 A 0.8537269,0.8537269 0 0 0 -0.874935,0.662271 H -0.871318 V 6.654153 H -0.874935 A 0.8537269,0.8537269 0 0 0 -0.448088,7.393642 0.8537269,0.8537269 0 0 0 0.405606,7.393642 0.8537269,0.8537269 0 0 0 0.832453,6.654153 H 0.82832 V 0.662271 H 0.832453 A 0.8537269,0.8537269 0 0 0 0.82832,0.655037 V 0.644701 H 0.822118 A 0.8537269,0.8537269 0 0 0 0.405606,-0.077218 0.8537269,0.8537269 0 0 0 -0.448088,-0.077218 Z" />
        <path
           id="rect1477-09"
           style="fill:#00ffff;fill-opacity:1;stroke:none;stroke-width:0.272381"
           d="M 2.42404,-0.077218 A 0.8537269,0.8537269 0 0 0 2.007527,0.644702 H 2.00081 V 0.65607 A 0.8537269,0.8537269 0 0 0 1.997193,0.662272 H 2.00081 V 6.654153 H 1.997193 A 0.8537269,0.8537269 0 0 0 2.42404,7.393642 0.8537269,0.8537269 0 0 0 3.277734,7.393642 0.8537269,0.8537269 0 0 0 3.704581,6.654153 H 3.700448 V 0.662272 H 3.704581 A 0.8537269,0.8537269 0 0 0 3.700448,0.655037 V 0.644702 H 3.694246 A 0.8537269,0.8537269 0 0 0 3.277734,-0.077218 0.8537269,0.8537269 0 0 0 2.42404,-0.077218 Z" />
      </g>
      <path
         style="fill:#00ffff;stroke-width:0.212921"
         d="M -19.588735,4.7707001 C -21.576874,3.4607354 -24.882806,0.08590086 -25.930625,-1.7033683 -28.463244,-6.0280989 -28.705926,-10.565642 -26.636661,-14.904472 -20.647785,-27.461935 1.1495053,-32.270392 16.665538,-24.456887 21.334511,-22.105704 24.748171,-18.838467 26.646054,-14.904472 28.706231,-10.634065 28.455936,-6.0156196 25.930626,-1.7033683 24.882703,0.08607546 21.576619,3.4609781 19.588735,4.7705298 L 18.204748,5.6822555 18.04701,4.4455995 C 17.527287,0.37100425 13.82482,-3.406745 8.4851799,-5.3106487 -3.0427757,-9.42106 -16.957505,-4.2396261 -18.065659,4.5760967 L -18.204748,5.6825962 Z"
         id="path1154"
         transform="scale(0.26458333)" />
    </g>
  </g>
</svg>
