<?xml version="1.0" encoding="UTF-8" standalone="no"?>
<!-- Created with Inkscape (http://www.inkscape.org/) -->

<svg
   width="210mm"
   height="297mm"
   viewBox="0 0 210 297"
   version="1.1"
   id="svg5"
   inkscape:version="1.1.2 (0a00cf5339, 2022-02-04)"
   sodipodi:docname="jellyfish2.svg"
   xmlns:inkscape="http://www.inkscape.org/namespaces/inkscape"
   xmlns:sodipodi="http://sodipodi.sourceforge.net/DTD/sodipodi-0.dtd"
   xmlns="http://www.w3.org/2000/svg"
   xmlns:svg="http://www.w3.org/2000/svg">
  <sodipodi:namedview
     id="namedview7"
     pagecolor="#ffffff"
     bordercolor="#666666"
     borderopacity="1.0"
     inkscape:pageshadow="2"
     inkscape:pageopacity="0.0"
     inkscape:pagecheckerboard="0"
     inkscape:document-units="mm"
     showgrid="false"
     inkscape:snap-global="true"
     inkscape:snap-bbox="true"
     inkscape:zoom="8"
     inkscape:cx="4.1603745"
     inkscape:cy="7.889364"
     inkscape:window-width="956"
     inkscape:window-height="1182"
     inkscape:window-x="1920"
     inkscape:window-y="16"
     inkscape:window-maximized="1"
     inkscape:current-layer="layer1">
    <inkscape:grid
       type="xygrid"
       id="grid36140" />
  </sodipodi:namedview>
  <defs
     id="defs2" />
  <g
     inkscape:label="Layer 1"
     inkscape:groupmode="layer"
     id="layer1">
    <g
       id="g56541"
       transform="matrix(0.9999773,0,0,0.99997841,-0.36084216,0.45280696)">
      <path
         id="path19952"
         style="fill:#00ffff;fill-opacity:1;stroke:none;stroke-width:0.612226;stroke-linejoin:bevel;stroke-miterlimit:4;stroke-dasharray:none;stroke-opacity:1"
         d="M 0.36059108,-8.9550003 C -3.4658212,-8.9548283 -6.5677051,-6.0711554 -6.5677051,-2.5141613 -6.5656148,-2.2354117 -6.5439955,-1.9573051 -6.5031094,-1.681151 0.37969675,1.8306424 7.2242941,-1.681151 7.2242941,-1.681151 7.2653047,-1.9572971 7.2871912,-2.2354038 7.2894057,-2.5141613 7.2894057,-6.071293 4.1871515,-8.9550214 0.36059108,-8.9550003 Z M -1.6480813,-8.0697965 A 0.65855614,0.65854106 0 0 1 -0.98920415,-7.4109346 0.65855614,0.65854106 0 0 1 -1.6480813,-6.7525885 0.65855614,0.65854106 0 0 1 -2.3064423,-7.4109346 0.65855614,0.65854106 0 0 1 -1.6480813,-8.0697965 Z M -3.2293909,-7.1044994 A 0.75186633,1.1585143 33.242442 0 1 -2.7689498,-6.8926301 0.75186633,1.1585143 33.242442 0 1 -3.0810778,-5.4178099 0.75186633,1.1585143 33.242442 0 1 -4.3058145,-5.2116237 0.75186633,1.1585143 33.242442 0 1 -3.9936891,-6.6864439 0.75186633,1.1585143 33.242442 0 1 -3.2293909,-7.1044994 Z" />
      <g
         id="g56531">
        <g
           id="g54141"
           transform="translate(0.13106096)">
          <path
             id="rect1477-30"
             style="fill:#00ffff;fill-opacity:1;stroke:none;stroke-width:0.272381"
             d="M -3.0691864,0.46413764 A 0.8537269,0.8537269 0 0 0 -3.4856994,1.1860576 H -3.4924164 V 1.1974266 A 0.8537269,0.8537269 0 0 0 -3.4960334,1.2036276 H -3.4924164 V 7.1955096 H -3.4960334 A 0.8537269,0.8537269 0 0 0 -3.0691864,7.9349986 0.8537269,0.8537269 0 0 0 -2.2154924,7.9349986 0.8537269,0.8537269 0 0 0 -1.7886454,7.1955096 H -1.7927784 V 1.2036276 H -1.7886454 A 0.8537269,0.8537269 0 0 0 -1.7927784,1.1963926 V 1.1860576 H -1.7989804 A 0.8537269,0.8537269 0 0 0 -2.2154924,0.46413764 0.8537269,0.8537269 0 0 0 -3.0691864,0.46413764 Z" />
          <path
             id="rect1477-3-9"
             style="fill:#00ffff;fill-opacity:1;stroke:none;stroke-width:0.272381"
             d="M -0.19705639,0.46413864 A 0.8537269,0.8537269 0 0 0 -0.61356939,1.1860576 H -0.62028639 V 1.1974266 A 0.8537269,0.8537269 0 0 0 -0.62390339,1.2036276 H -0.62028639 V 7.1955096 H -0.62390339 A 0.8537269,0.8537269 0 0 0 -0.19705639,7.9349986 0.8537269,0.8537269 0 0 0 0.65663761,7.9349986 0.8537269,0.8537269 0 0 0 1.0834846,7.1955096 H 1.0793516 V 1.2036276 H 1.0834846 A 0.8537269,0.8537269 0 0 0 1.0793516,1.1963936 V 1.1860576 H 1.0731496 A 0.8537269,0.8537269 0 0 0 0.65663761,0.46413864 0.8537269,0.8537269 0 0 0 -0.19705639,0.46413864 Z" />
          <path
             id="rect1477-09-2"
             style="fill:#00ffff;fill-opacity:1;stroke:none;stroke-width:0.272381"
             d="M 2.6750716,0.46413864 A 0.8537269,0.8537269 0 0 0 2.2585586,1.1860586 H 2.2518416 V 1.1974266 A 0.8537269,0.8537269 0 0 0 2.2482246,1.2036286 H 2.2518416 V 7.1955096 H 2.2482246 A 0.8537269,0.8537269 0 0 0 2.6750716,7.9349986 0.8537269,0.8537269 0 0 0 3.5287656,7.9349986 0.8537269,0.8537269 0 0 0 3.9556126,7.1955096 H 3.9514796 V 1.2036286 H 3.9556126 A 0.8537269,0.8537269 0 0 0 3.9514796,1.1963936 V 1.1860586 H 3.9452776 A 0.8537269,0.8537269 0 0 0 3.5287656,0.46413864 0.8537269,0.8537269 0 0 0 2.6750716,0.46413864 Z" />
        </g>
        <path
           id="rect1477-30-5"
           style="fill:#00ffff;fill-opacity:1;stroke:none;stroke-width:0.272381"
           d="M 5.7312142,-0.59174382 A 0.85372688,0.85372688 0 0 0 5.6464649,-0.58916 0.85372688,0.85372688 0 0 0 5.2831796,-0.47702214 0.85372688,0.85372688 0 0 0 4.8666675,0.2448976 H 4.8599495 V 0.25626643 A 0.85372688,0.85372688 0 0 0 4.8563321,0.2624676 H 4.8599495 V 2.9083009 H 4.8558153 A 0.85372688,0.85372688 0 0 0 4.8599495,2.9155357 V 2.9258708 H 4.8661508 A 0.85372688,0.85372688 0 0 0 4.9384976,3.2586672 0.85372688,0.85372688 0 0 0 5.0299649,3.4777753 L 5.0242806,3.4813927 5.0299649,3.4906943 A 0.85372688,0.85372688 0 0 0 5.0299649,3.4979291 L 5.0330655,3.4963787 6.4169604,5.7515383 6.4133431,5.7536052 A 0.85372688,0.85372688 0 0 0 6.4205778,5.7577393 L 6.4257454,5.7665243 6.4314297,5.7634239 A 0.85372688,0.85372688 0 0 0 7.1636847,6.1608156 0.85372688,0.85372688 0 0 0 7.6406583,6.0001019 0.85372688,0.85372688 0 0 0 7.8912889,5.7143312 0.85372688,0.85372688 0 0 0 7.8690681,4.881307 L 7.8747524,4.8776896 7.8685514,4.8678712 A 0.85372688,0.85372688 0 0 0 7.8685514,4.8673545 0.85372688,0.85372688 0 0 0 7.8685514,4.8668378 0.85372688,0.85372688 0 0 0 7.8685514,4.8663208 0.85372688,0.85372688 0 0 0 7.8685514,4.865804 0.85372688,0.85372688 0 0 0 7.8685514,4.8652873 0.85372688,0.85372688 0 0 0 7.8685514,4.8647706 0.85372688,0.85372688 0 0 0 7.8685514,4.8642538 0.85372688,0.85372688 0 0 0 7.8685514,4.8637371 0.85372688,0.85372688 0 0 0 7.8685514,4.8632204 0.85372688,0.85372688 0 0 0 7.8685514,4.8627036 0.85372688,0.85372688 0 0 0 7.8685514,4.8621869 0.85372688,0.85372688 0 0 0 7.8685514,4.8616699 0.85372688,0.85372688 0 0 0 7.8685514,4.8611532 0.85372688,0.85372688 0 0 0 7.8685514,4.8606364 L 7.8654507,4.8627036 6.5595873,2.7341514 V 0.2624676 H 6.5637214 A 0.85372688,0.85372688 0 0 0 6.5595873,0.25523289 V 0.2448976 H 6.5533862 A 0.85372688,0.85372688 0 0 0 6.1368741,-0.47702214 0.85372688,0.85372688 0 0 0 5.7312142,-0.59174382 Z" />
        <path
           id="rect1477-30-5-7"
           style="fill:#00ffff;fill-opacity:1;stroke:none;stroke-width:0.272381"
           d="M -5.0095135,-0.69194743 A 0.85372688,0.85372688 0 0 1 -4.9247642,-0.68936363 0.85372688,0.85372688 0 0 1 -4.5614789,-0.57722573 0.85372688,0.85372688 0 0 1 -4.1449668,0.14469397 H -4.1382488 V 0.15606277 A 0.85372688,0.85372688 0 0 1 -4.1346314,0.16226397 H -4.1382488 V 2.8080973 H -4.1341146 A 0.85372688,0.85372688 0 0 1 -4.1382488,2.8153321 V 2.8256672 H -4.1444501 A 0.85372688,0.85372688 0 0 1 -4.2167969,3.1584636 0.85372688,0.85372688 0 0 1 -4.3082642,3.3775717 L -4.3025799,3.3811891 -4.3082642,3.3904907 A 0.85372688,0.85372688 0 0 1 -4.3082642,3.3977255 L -4.3113648,3.3961751 -5.6952597,5.6513347 -5.6916424,5.6534016 A 0.85372688,0.85372688 0 0 1 -5.6988771,5.6575357 L -5.7040447,5.6663207 -5.709729,5.6632203 A 0.85372688,0.85372688 0 0 1 -6.441984,6.060612 0.85372688,0.85372688 0 0 1 -6.9189576,5.8998983 0.85372688,0.85372688 0 0 1 -7.1695882,5.6141276 0.85372688,0.85372688 0 0 1 -7.1473674,4.7811034 L -7.1530517,4.777486 -7.1468507,4.7676676 A 0.85372688,0.85372688 0 0 1 -7.1468507,4.7671509 0.85372688,0.85372688 0 0 1 -7.1468507,4.7666342 0.85372688,0.85372688 0 0 1 -7.1468507,4.7661172 0.85372688,0.85372688 0 0 1 -7.1468507,4.7656004 0.85372688,0.85372688 0 0 1 -7.1468507,4.7650837 0.85372688,0.85372688 0 0 1 -7.1468507,4.764567 0.85372688,0.85372688 0 0 1 -7.1468507,4.7640502 0.85372688,0.85372688 0 0 1 -7.1468507,4.7635335 0.85372688,0.85372688 0 0 1 -7.1468507,4.7630168 0.85372688,0.85372688 0 0 1 -7.1468507,4.7625 0.85372688,0.85372688 0 0 1 -7.1468507,4.7619833 0.85372688,0.85372688 0 0 1 -7.1468507,4.7614663 0.85372688,0.85372688 0 0 1 -7.1468507,4.7609496 0.85372688,0.85372688 0 0 1 -7.1468507,4.7604328 L -7.14375,4.7625 -5.8378866,2.6339478 V 0.16226397 H -5.8420207 A 0.85372688,0.85372688 0 0 1 -5.8378866,0.15502927 V 0.14469397 H -5.8316855 A 0.85372688,0.85372688 0 0 1 -5.4151734,-0.57722573 0.85372688,0.85372688 0 0 1 -5.0095135,-0.69194743 Z" />
      </g>
    </g>
  </g>
</svg>
